<svg width="24" height="24" viewBox="0 0 24 24" fill="none" xmlns="http://www.w3.org/2000/svg">
<path d="M14.5612 4.6289L16.5019 2.68819C16.7162 2.47383 17.0638 2.47383 17.2782 2.68819L21.9359 7.34589C22.1502 7.56025 22.1502 7.90781 21.9359 8.12217L19.9952 10.0629L14.5612 4.6289Z" fill="white" stroke="#FF9C27" stroke-width="2" stroke-linecap="round"/>
<path d="M11.5916 18.1795L6.44446 13.0323C6.38279 12.9707 6.2773 13.0021 6.25939 13.0874L4.89218 19.6018C4.8759 19.6793 4.94462 19.748 5.02217 19.7318L11.5365 18.3646C11.6219 18.3466 11.6533 18.2412 11.5916 18.1795Z" stroke="#FF9C27" stroke-width="2" stroke-linecap="round"/>
<path d="M6.41021 12.7798L14.173 5.01693C14.3874 4.80256 14.735 4.80256 14.9493 5.01693L19.607 9.67462C19.8214 9.88899 19.8214 10.2365 19.607 10.4509L11.8442 18.2137C11.6298 18.4281 11.2823 18.4281 11.0679 18.2137L6.41021 13.556C6.19585 13.3417 6.19585 12.9941 6.41021 12.7798Z" fill="white" stroke="#FF9C27" stroke-width="2" stroke-linecap="round"/>
<path d="M4.46951 20.1545L4.08089 20.5432" stroke="#FF9C27" stroke-width="2" stroke-linecap="round"/>
</svg>
