<svg width="24" height="24" viewBox="0 0 24 24" fill="none" xmlns="http://www.w3.org/2000/svg">
<g clip-path="url(#clip0_10_573)">
<circle cx="19.5885" cy="10.1601" r="1.16015" fill="#03DBB2"/>
<path fill-rule="evenodd" clip-rule="evenodd" d="M19.6055 14.0689C18.9035 14.0703 18.2306 14.3496 17.7344 14.8457H17.7368C17.2405 15.3417 16.9613 16.014 16.9604 16.7153C16.9595 17.4166 17.237 18.0896 17.7321 18.5869L17.7293 18.5897C18.227 19.0818 18.8995 19.3574 19.6 19.3561C20.302 19.3547 20.9749 19.0754 21.4711 18.5793C21.7351 18.3165 21.9406 18.001 22.074 17.6533C22.1983 17.3296 22.2574 16.9849 22.2485 16.6388C22.2461 16.6126 22.2449 16.5862 22.2449 16.5597C22.2449 16.3865 22.2963 16.2172 22.3926 16.0732C22.489 15.9292 22.6259 15.817 22.786 15.7507C22.9462 15.6844 23.1225 15.6671 23.2925 15.7008C23.4626 15.7346 23.6188 15.818 23.7414 15.9405C23.864 16.063 23.9474 16.219 23.9813 16.3889C23.9934 16.45 23.999 16.5119 23.998 16.5735C24.0245 17.4509 23.7877 18.3161 23.318 19.0581C22.8462 19.8033 22.1611 20.3896 21.3516 20.7412C20.5422 21.0927 19.6456 21.1932 18.7783 21.0295C17.911 20.8659 17.1129 20.4457 16.4875 19.8235L16.488 19.823C15.6637 18.9985 15.2004 17.881 15.2 16.7156C15.1996 15.5487 15.6632 14.4293 16.4889 13.6039C17.3146 12.7784 18.4348 12.3144 19.603 12.314C20.749 12.3135 21.8491 12.7593 22.6707 13.555C22.6863 13.5685 22.7015 13.5826 22.7162 13.5973C22.8388 13.7198 22.9222 13.8758 22.9561 14.0457C22.9899 14.2155 22.9725 14.3916 22.9062 14.5516C22.8543 14.6767 22.7744 14.7875 22.6731 14.8759L20.1581 17.3868C20.1057 17.4485 20.0447 17.503 19.9767 17.5485C19.8325 17.6447 19.663 17.696 19.4896 17.696C19.2571 17.696 19.0342 17.6038 18.8698 17.4396C18.7054 17.2753 18.613 17.0526 18.613 16.8204C18.613 16.6472 18.6644 16.4779 18.7608 16.3339C18.8027 16.2711 18.8524 16.2144 18.9083 16.1649L18.9066 16.1632L20.7477 14.3248C20.3941 14.1572 20.0043 14.0682 19.6055 14.0689Z" fill="#03DBB2"/>
<path d="M1.00003 22.4113H15.5234" stroke="#03DBB2" stroke-width="2" stroke-linecap="round"/>
<path d="M2.41612 21.6262V3C2.41612 2.44772 2.86384 2 3.41612 2H18.3358C18.888 2 19.3358 2.44772 19.3358 3V6" stroke="#03DBB2" stroke-width="2" stroke-linecap="round"/>
<path d="M6.70854 22V16C6.70854 15.4477 7.15626 15 7.70854 15H11.7085C12.2608 15 12.7085 15.4477 12.7085 16V22" stroke="#03DBB2" stroke-width="2" stroke-linecap="round"/>
<path d="M8.28699 6H13.465" stroke="#03DBB2" stroke-width="2" stroke-linecap="round"/>
<path d="M8.28699 9.94727H13.465" stroke="#03DBB2" stroke-width="2" stroke-linecap="round"/>
</g>
<defs>
<clipPath id="clip0_10_573">
<rect width="24" height="24" fill="white"/>
</clipPath>
</defs>
</svg>
