<svg width="28" height="28" viewBox="0 0 28 28" fill="none" xmlns="http://www.w3.org/2000/svg">
<circle cx="22" cy="22" r="6" fill="#CDF8F0"/>
<circle cx="19.5885" cy="11.1601" r="1.16015" fill="#03DBB2"/>
<path fill-rule="evenodd" clip-rule="evenodd" d="M19.6055 15.0689C18.9035 15.0703 18.2306 15.3496 17.7344 15.8457H17.7368C17.2405 16.3417 16.9613 17.014 16.9604 17.7153C16.9595 18.4166 17.237 19.0896 17.7321 19.5869L17.7293 19.5897C18.227 20.0818 18.8995 20.3574 19.6 20.3561C20.302 20.3547 20.9749 20.0754 21.4711 19.5793C21.7351 19.3165 21.9406 19.001 22.074 18.6533C22.1983 18.3296 22.2574 17.9849 22.2485 17.6388C22.2461 17.6126 22.2449 17.5862 22.2449 17.5597C22.2449 17.3865 22.2963 17.2172 22.3926 17.0732C22.489 16.9292 22.6259 16.817 22.786 16.7507C22.9462 16.6844 23.1225 16.6671 23.2925 16.7008C23.4626 16.7346 23.6188 16.818 23.7414 16.9405C23.864 17.063 23.9474 17.219 23.9813 17.3889C23.9934 17.45 23.999 17.5119 23.998 17.5735C24.0245 18.4509 23.7877 19.3161 23.318 20.0581C22.8462 20.8033 22.1611 21.3896 21.3516 21.7412C20.5422 22.0927 19.6456 22.1932 18.7783 22.0295C17.911 21.8659 17.1129 21.4457 16.4875 20.8235L16.488 20.823C15.6637 19.9985 15.2004 18.881 15.2 17.7156C15.1996 16.5487 15.6632 15.4293 16.4889 14.6039C17.3146 13.7784 18.4348 13.3144 19.603 13.314C20.749 13.3135 21.8491 13.7593 22.6707 14.555C22.6863 14.5685 22.7015 14.5826 22.7162 14.5973C22.8388 14.7198 22.9222 14.8758 22.9561 15.0457C22.9899 15.2155 22.9725 15.3916 22.9062 15.5516C22.8543 15.6767 22.7744 15.7875 22.6731 15.8759L20.1581 18.3868C20.1057 18.4485 20.0447 18.503 19.9767 18.5485C19.8325 18.6447 19.663 18.696 19.4896 18.696C19.2571 18.696 19.0342 18.6038 18.8698 18.4396C18.7054 18.2753 18.613 18.0526 18.613 17.8204C18.613 17.6472 18.6644 17.4779 18.7608 17.3339C18.8027 17.2711 18.8524 17.2144 18.9083 17.1649L18.9066 17.1632L20.7477 15.3248C20.3941 15.1572 20.0043 15.0682 19.6055 15.0689Z" fill="#03DBB2"/>
<path d="M1.00003 23.4113H15.5234" stroke="#03DBB2" stroke-width="2" stroke-linecap="round"/>
<path d="M2.41612 22.6262V4C2.41612 3.44772 2.86384 3 3.41612 3H18.3358C18.888 3 19.3358 3.44772 19.3358 4V7" stroke="#03DBB2" stroke-width="2" stroke-linecap="round"/>
<path d="M6.70854 23V17C6.70854 16.4477 7.15626 16 7.70854 16H11.7085C12.2608 16 12.7085 16.4477 12.7085 17V23" stroke="#03DBB2" stroke-width="2" stroke-linecap="round"/>
<path d="M8.28699 7H13.465" stroke="#03DBB2" stroke-width="2" stroke-linecap="round"/>
<path d="M8.28699 10.9473H13.465" stroke="#03DBB2" stroke-width="2" stroke-linecap="round"/>
</svg>
