<svg width="20" height="20" viewBox="0 0 20 20" fill="none" xmlns="http://www.w3.org/2000/svg">
<g clip-path="url(#clip0_345_3116)">
<path d="M18.3827 3.71275C17.9055 3.18716 17.3229 2.76777 16.673 2.48182C16.023 2.19586 15.3202 2.04974 14.61 2.05292C13.6903 2.0652 12.7882 2.30668 11.9855 2.75548C11.1827 3.20428 10.5047 3.84622 10.0129 4.62311C9.52045 3.8321 8.83716 3.17738 8.02569 2.71905C7.21421 2.26072 6.30055 2.01345 5.36858 1.99994C4.65938 1.99636 3.95754 2.14374 3.30974 2.4323C2.66195 2.72086 2.08307 3.14398 1.61157 3.67351C0.557485 4.84088 0 6.50267 0 8.47642C0 14.4526 6.57971 18.8199 10.0109 18.8199C13.4421 18.8199 20.0218 14.4526 20.0218 8.47642C20.01 6.52229 19.4466 4.87424 18.3827 3.71275ZM10.005 16.7167C7.64949 16.7167 2.10424 13.2362 2.10424 8.47642C2.10424 7.03044 2.47329 5.85718 3.17208 5.08024C3.44768 4.7704 3.78606 4.52269 4.16476 4.35356C4.54346 4.18443 4.9538 4.09774 5.36858 4.09926C7.14895 4.09926 8.95287 5.60017 8.95287 8.4725C8.95287 8.7514 9.06373 9.01888 9.26104 9.2161C9.45835 9.41331 9.72595 9.52411 10.005 9.52411C10.284 9.52411 10.5517 9.41331 10.749 9.2161C10.9463 9.01888 11.0571 8.7514 11.0571 8.4725C11.0571 5.64137 12.8473 4.15615 14.61 4.15615C15.0283 4.15443 15.4422 4.2409 15.8247 4.40994C16.2073 4.57898 16.5499 4.82677 16.8301 5.13714C17.5348 5.90427 17.9057 7.05988 17.9057 8.4725C17.9057 13.2362 12.3625 16.7167 10.005 16.7167Z" fill="#FF6A6A"/>
</g>
<defs>
<clipPath id="clip0_345_3116">
<rect width="20" height="20" fill="white"/>
</clipPath>
</defs>
</svg>
