<svg width="24" height="24" viewBox="0 0 24 24" fill="none" xmlns="http://www.w3.org/2000/svg">
<g clip-path="url(#clip0_147_1453)">
<path d="M13.1973 4.6289L15.138 2.68819C15.3523 2.47383 15.6999 2.47383 15.9142 2.68819L20.5719 7.34589C20.7863 7.56025 20.7863 7.90781 20.5719 8.12217L18.6312 10.0629L13.1973 4.6289Z" fill="white" stroke="#FF9C27" stroke-width="2" stroke-linecap="round"/>
<path d="M10.2277 18.1795L5.08054 13.0323C5.01887 12.9707 4.91338 13.0021 4.89547 13.0874L3.52825 19.6018C3.51198 19.6793 3.5807 19.748 3.65824 19.7318L10.1726 18.3646C10.258 18.3466 10.2894 18.2412 10.2277 18.1795Z" stroke="#FF9C27" stroke-width="2" stroke-linecap="round"/>
<path d="M5.04629 12.7798L12.8091 5.01693C13.0235 4.80256 13.371 4.80256 13.5854 5.01693L18.2431 9.67462C18.4575 9.88899 18.4575 10.2365 18.2431 10.4509L10.4803 18.2137C10.2659 18.4281 9.91835 18.4281 9.70399 18.2137L5.04629 13.556C4.83192 13.3417 4.83192 12.9941 5.04629 12.7798Z" fill="white" stroke="#FF9C27" stroke-width="2" stroke-linecap="round"/>
<path d="M3.10558 20.1545L2.71697 20.5432" stroke="#FF9C27" stroke-width="2" stroke-linecap="round"/>
<path d="M12 20.9999H21.5" stroke="#FF9C27" stroke-width="2" stroke-linecap="round"/>
</g>
<defs>
<clipPath id="clip0_147_1453">
<rect width="24" height="24" fill="white"/>
</clipPath>
</defs>
</svg>
