<svg width="22" height="17" viewBox="0 0 22 17" fill="none" xmlns="http://www.w3.org/2000/svg">
<path d="M14.3257 14.2439H13.4171H14.3257ZM14.3257 10.6009H15.2343V9.97466L14.6491 9.75177L14.3257 10.6009ZM14.8547 14.4573L15.5088 15.0878V15.0878L14.8547 14.4573ZM20.9139 8.17099L20.2597 7.54044L20.2597 7.54044L20.9139 8.17099ZM20.9139 7.74416L20.2597 8.37471L20.2597 8.37471L20.9139 7.74416ZM14.8547 1.45788L15.5088 0.827324L15.5088 0.827323L14.8547 1.45788ZM14.3257 1.6713H13.4171V1.6713L14.3257 1.6713ZM14.3257 4.43346V5.34206H15.2343V4.43346L14.3257 4.43346ZM1.01147 15.5204L1.88831 15.7585V15.7585L1.01147 15.5204ZM1.54766 15.78L0.871844 15.1727H0.871844L1.54766 15.78ZM15.2343 14.2439L15.2343 10.6009H13.4171L13.4171 14.2439H15.2343ZM14.2005 13.8267C14.5758 13.4373 15.2343 13.703 15.2343 14.2439H13.4171C13.4171 15.3381 14.7494 15.8757 15.5088 15.0878L14.2005 13.8267ZM20.2597 7.54044L14.2005 13.8267L15.5088 15.0878L21.5681 8.80155L20.2597 7.54044ZM20.2597 8.37471C20.0353 8.1419 20.0353 7.77326 20.2597 7.54044L21.5681 8.80155C22.0221 8.3305 22.0221 7.58465 21.5681 7.1136L20.2597 8.37471ZM14.2005 2.08843L20.2597 8.37471L21.5681 7.1136L15.5088 0.827324L14.2005 2.08843ZM15.2343 1.6713C15.2343 2.21214 14.5758 2.47783 14.2005 2.08843L15.5088 0.827323C14.7494 0.0394664 13.4171 0.577026 13.4171 1.6713H15.2343ZM15.2343 4.43346L15.2343 1.6713L13.4171 1.6713L13.4171 4.43346L15.2343 4.43346ZM14.3257 3.52486C6.00375 3.52486 1.44623 10.4528 0.134638 15.2823L1.88831 15.7585C3.09708 11.3077 7.18482 5.34206 14.3257 5.34206V3.52486ZM0.134638 15.2823C-0.0392344 15.9225 0.321116 16.4611 0.776443 16.6778C1.21518 16.8865 1.81645 16.8403 2.22348 16.3873L0.871844 15.1727C1.06286 14.9601 1.35369 14.94 1.55716 15.0368C1.65991 15.0857 1.76792 15.1749 1.8387 15.3138C1.91478 15.4631 1.92446 15.6254 1.88831 15.7585L0.134638 15.2823ZM2.22348 16.3873C3.52216 14.9421 5.50728 13.2978 7.682 12.228C9.87215 11.1506 12.1026 10.7264 14.0023 11.45L14.6491 9.75177C12.0723 8.77027 9.27762 9.41785 6.87987 10.5974C4.46667 11.7845 2.30106 13.5823 0.871844 15.1727L2.22348 16.3873Z" fill="#9874FF"/>
</svg>
