<svg width="24" height="24" viewBox="0 0 24 24" fill="none" xmlns="http://www.w3.org/2000/svg">
<path d="M4.34722 9.15278V14.9698C4.34722 15.1259 4.26358 15.27 4.12806 15.3475C3.12131 15.9227 2.5 16.9934 2.5 18.1529V19.3429C2.5 19.399 2.54548 19.4444 2.60157 19.4444H21.3984C21.4545 19.4444 21.5 19.399 21.5 19.3429V18.1529C21.5 16.9934 20.8787 15.9227 19.8719 15.3475C19.7364 15.27 19.6528 15.1259 19.6528 14.9698V9.15278C19.6528 5.45833 17.0139 1.5 12 1.5C6.72222 1.5 4.34722 5.45833 4.34722 9.15278Z" stroke="#222222" stroke-width="2"/>
<path d="M12 22.6111C13.1875 22.6111 15.1667 21.7763 15.1667 19.4445H8.83334C8.83334 21.7763 10.8125 22.6111 12 22.6111Z" stroke="#222222" stroke-width="2"/>
</svg>
