<svg width="16" height="16" viewBox="0 0 16 16" fill="none" xmlns="http://www.w3.org/2000/svg">
<g clip-path="url(#clip0_534_3281)">
<path d="M14.7062 2.97024C14.3244 2.54977 13.8584 2.21426 13.3384 1.9855C12.8184 1.75673 12.2561 1.63983 11.688 1.64238C10.9522 1.6522 10.2306 1.84539 9.58836 2.20443C8.94616 2.56347 8.40374 3.07702 8.01028 3.69853C7.61636 3.06572 7.06973 2.54195 6.42055 2.17528C5.77137 1.80862 5.04044 1.6108 4.29486 1.6C3.7275 1.59713 3.16603 1.71504 2.64779 1.94589C2.12956 2.17673 1.66646 2.51522 1.28926 2.93885C0.445988 3.87275 0 5.20218 0 6.78118C0 11.5621 5.26376 15.056 8.00871 15.056C10.7537 15.056 16.0174 11.5621 16.0174 6.78118C16.008 5.21788 15.5573 3.89943 14.7062 2.97024ZM8.00399 13.3734C6.11959 13.3734 1.6834 10.589 1.6834 6.78118C1.6834 5.6244 1.97863 4.68579 2.53767 4.06424C2.75814 3.81636 3.02885 3.6182 3.33181 3.48289C3.63477 3.34759 3.96304 3.27824 4.29486 3.27945C5.71916 3.27945 7.1623 4.48018 7.1623 6.77804C7.1623 7.00116 7.25098 7.21515 7.40883 7.37292C7.56668 7.53069 7.78076 7.61933 8.00399 7.61933C8.22723 7.61933 8.44133 7.53069 8.59918 7.37292C8.75703 7.21515 8.84571 7.00116 8.84571 6.77804C8.84571 4.51314 10.2779 3.32497 11.688 3.32497C12.0226 3.32358 12.3538 3.39276 12.6598 3.52799C12.9658 3.66322 13.2399 3.86146 13.4641 4.10976C14.0278 4.72346 14.3246 5.64794 14.3246 6.77804C14.3246 10.589 9.88997 13.3734 8.00399 13.3734Z" fill="#A3A3A3"/>
</g>
<defs>
<clipPath id="clip0_534_3281">
<rect width="16" height="16" fill="white"/>
</clipPath>
</defs>
</svg>
