<svg width="24" height="24" viewBox="0 0 24 24" fill="none" xmlns="http://www.w3.org/2000/svg">
<ellipse cx="6.93378" cy="10.4338" rx="1.43378" ry="1.43378" transform="rotate(-90 6.93378 10.4338)" fill="#74A3FF"/>
<ellipse cx="11.8015" cy="10.4338" rx="1.43378" ry="1.43378" transform="rotate(-90 11.8015 10.4338)" fill="#74A3FF"/>
<ellipse cx="16.6691" cy="10.4338" rx="1.43378" ry="1.43378" transform="rotate(-90 16.6691 10.4338)" fill="#74A3FF"/>
<path d="M9.86163 19.5225L10.6591 20.0494L9.86163 19.5225ZM10.1373 19.4024L10.0028 20.3487L10.1373 19.4024ZM8.2533 22.787L7.56593 23.4512L8.2533 22.787ZM8.73841 22.5929L7.78949 22.478L8.73841 22.5929ZM6.3639 18.2402L6.79012 17.3847L6.3639 18.2402ZM6.52718 18.4838L5.57377 18.552L6.52718 18.4838ZM22.0441 10.3666C22.0441 14.7455 17.7178 18.5774 12 18.5774V20.4891C18.4325 20.4891 23.9559 16.1129 23.9559 10.3666H22.0441ZM12 2.1558C17.7178 2.1558 22.0441 5.98769 22.0441 10.3666H23.9559C23.9559 4.62033 18.4325 0.244097 12 0.244097V2.1558ZM1.95585 10.3666C1.95585 5.98769 6.28219 2.1558 12 2.1558V0.244097C5.56755 0.244097 0.0441463 4.62033 0.0441463 10.3666H1.95585ZM6.79012 17.3847C3.82696 15.9085 1.95585 13.2732 1.95585 10.3666H0.0441463C0.0441463 14.1519 2.47543 17.371 5.93768 19.0958L6.79012 17.3847ZM8.94067 22.1227C7.89507 21.0407 7.56456 19.5885 7.48059 18.4155L5.57377 18.552C5.67116 19.9125 6.06591 21.8988 7.56593 23.4512L8.94067 22.1227ZM9.06413 18.9956C8.42201 19.9674 7.93518 21.2747 7.78949 22.478L9.68734 22.7078C9.79731 21.7995 10.1802 20.7743 10.6591 20.0494L9.06413 18.9956ZM12 18.5774C11.4101 18.5774 10.8327 18.5358 10.2718 18.4561L10.0028 20.3487C10.6528 20.4411 11.3201 20.4891 12 20.4891V18.5774ZM10.6591 20.0494C10.5013 20.2883 10.2344 20.3817 10.0028 20.3487L10.2718 18.4561C9.8248 18.3925 9.34187 18.5752 9.06413 18.9956L10.6591 20.0494ZM7.56593 23.4512C7.95858 23.8575 8.50506 23.899 8.91564 23.728C9.30948 23.5639 9.62875 23.1917 9.68734 22.7078L7.78949 22.478C7.81893 22.2349 7.9799 22.0468 8.1806 21.9632C8.39805 21.8727 8.71654 21.8908 8.94067 22.1227L7.56593 23.4512ZM5.93768 19.0958C5.7298 18.9923 5.59052 18.7861 5.57377 18.552L7.48059 18.4155C7.4489 17.9728 7.18525 17.5815 6.79012 17.3847L5.93768 19.0958Z" fill="#74A3FF"/>
</svg>
