<svg width="203" height="59" viewBox="0 0 203 59" fill="none" xmlns="http://www.w3.org/2000/svg">
<g clip-path="url(#clip0_123_1099)">
<path d="M8.61473 15.3246H0V52.6788H8.61473V15.3246Z" fill="#03DBB2"/>
<path d="M43.3296 35.698H34.7148V52.6787H43.3296V35.698Z" fill="#03DBB2"/>
<path d="M21.667 22.7427C25.1193 22.7415 28.4312 24.1089 30.877 26.5453C33.3227 28.9818 34.7028 32.2884 34.7147 35.7407H43.3294C43.2698 30.035 40.9613 24.5833 36.9056 20.5697C32.8498 16.5561 27.3742 14.3048 21.6682 14.3048C15.9623 14.3048 10.4867 16.5561 6.43091 20.5697C2.37513 24.5833 0.0666924 30.035 0.00701904 35.7407H8.61938C8.6313 32.2884 10.0114 28.9818 12.4571 26.5453C14.9029 24.1089 18.2148 22.7415 21.667 22.7427Z" fill="#03DBB2"/>
<path d="M4.30973 56.889C5.16212 56.889 5.99536 56.6362 6.70409 56.1627C7.41283 55.6891 7.96522 55.016 8.29141 54.2285C8.6176 53.441 8.70295 52.5745 8.53666 51.7385C8.37037 50.9025 7.9599 50.1346 7.35718 49.5318C6.75445 48.9291 5.98653 48.5186 5.15052 48.3523C4.31451 48.1861 3.44797 48.2714 2.66047 48.5976C1.87297 48.9238 1.19988 49.4762 0.726321 50.1849C0.252761 50.8936 0 51.7269 0 52.5793C0 53.7223 0.45406 54.8185 1.26229 55.6267C2.07052 56.4349 3.16672 56.889 4.30973 56.889Z" fill="#03DBB2"/>
<path d="M4.30973 19.7552C5.16212 19.7552 5.99536 19.5024 6.70409 19.0289C7.41283 18.5553 7.96522 17.8822 8.29141 17.0947C8.6176 16.3072 8.70295 15.4407 8.53666 14.6047C8.37037 13.7687 7.9599 13.0008 7.35718 12.398C6.75445 11.7953 5.98653 11.3848 5.15052 11.2186C4.31451 11.0523 3.44797 11.1376 2.66047 11.4638C1.87297 11.79 1.19988 12.3424 0.726321 13.0511C0.252761 13.7598 0 14.5931 0 15.4455C0 16.5885 0.45406 17.6847 1.26229 18.4929C2.07052 19.3012 3.16672 19.7552 4.30973 19.7552Z" fill="#03DBB2"/>
<path d="M39.0246 56.8842C39.877 56.8842 40.7102 56.6315 41.4189 56.1579C42.1277 55.6844 42.6801 55.0113 43.0063 54.2238C43.3324 53.4363 43.4178 52.5697 43.2515 51.7337C43.0852 50.8977 42.6747 50.1298 42.072 49.5271C41.4693 48.9243 40.7014 48.5139 39.8654 48.3476C39.0294 48.1813 38.1628 48.2666 37.3753 48.5928C36.5878 48.919 35.9147 49.4714 35.4412 50.1802C34.9676 50.8889 34.7148 51.7221 34.7148 52.5745C34.7148 53.1405 34.8263 53.7009 35.0429 54.2238C35.2595 54.7467 35.5769 55.2218 35.9771 55.6219C36.3773 56.0221 36.8524 56.3396 37.3753 56.5562C37.8982 56.7728 38.4586 56.8842 39.0246 56.8842Z" fill="#03DBB2"/>
<path d="M94.973 34.9375H86.3583V52.2143H94.973V34.9375Z" fill="#03DBB2"/>
<path d="M73.3105 22.1173C76.7627 22.1173 80.0743 23.4855 82.5199 25.9221C84.9654 28.3588 86.3456 31.6654 86.3582 35.1176H94.9729C94.9132 29.4119 92.6048 23.9602 88.549 19.9466C84.4932 15.9331 79.0177 13.6818 73.3117 13.6818C67.6057 13.6818 62.1301 15.9331 58.0743 19.9466C54.0186 23.9602 51.7101 29.4119 51.6505 35.1176H60.2628C60.2754 31.6654 61.6555 28.3588 64.1011 25.9221C66.5467 23.4855 69.8582 22.1173 73.3105 22.1173Z" fill="#03DBB2"/>
<path d="M73.3105 48.1131C69.8583 48.1131 66.5467 46.7449 64.1012 44.3083C61.6556 41.8716 60.2754 38.565 60.2629 35.1128H51.6505C51.7102 40.8185 54.0186 46.2702 58.0744 50.2838C62.1302 54.2973 67.6057 56.5486 73.3117 56.5486C79.0177 56.5486 84.4933 54.2973 88.5491 50.2838C92.6048 46.2702 94.9133 40.8185 94.9729 35.1128H86.3582C86.3457 38.565 84.9655 41.8716 82.5199 44.3083C80.0744 46.7449 76.7628 48.1131 73.3105 48.1131Z" fill="#03DBB2"/>
<path d="M90.668 56.7965C91.5205 56.7965 92.3538 56.5437 93.0626 56.07C93.7714 55.5963 94.3238 54.9231 94.6499 54.1355C94.976 53.3478 95.0612 52.4812 94.8948 51.6451C94.7283 50.809 94.3176 50.0411 93.7146 49.4385C93.1117 48.8358 92.3435 48.4255 91.5073 48.2595C90.6712 48.0935 89.8046 48.1792 89.0171 48.5057C88.2296 48.8323 87.5567 49.3851 87.0834 50.0941C86.6102 50.8031 86.3578 51.6366 86.3583 52.4891C86.3589 53.6317 86.8132 54.7273 87.6214 55.535C88.4296 56.3427 89.5254 56.7965 90.668 56.7965Z" fill="#03DBB2"/>
<path d="M117.372 27.6472C119.855 25.1626 123.221 23.7637 126.733 23.757C130.245 23.7504 133.617 25.1365 136.109 27.6117L142.304 21.416C138.17 17.285 132.564 14.9656 126.72 14.9678C120.876 14.97 115.272 17.2937 111.141 21.4278C107.01 25.5619 104.691 31.1676 104.693 37.0119C104.695 42.8561 107.019 48.4601 111.153 52.591L117.36 46.3835C114.884 43.8933 113.495 40.5226 113.5 37.0105C113.504 33.4983 114.901 30.1312 117.384 27.6472H117.372Z" fill="#03DBB2"/>
<path d="M142.399 27.479L136.203 21.2833L123.236 34.2457L129.429 40.4414L142.399 27.479Z" fill="#03DBB2"/>
<path d="M126.153 41.9222C127.02 41.9222 127.868 41.665 128.589 41.1831C129.31 40.7012 129.872 40.0163 130.204 39.215C130.536 38.4136 130.623 37.5318 130.454 36.6811C130.285 35.8304 129.867 35.049 129.254 34.4356C128.64 33.8223 127.859 33.4046 127.008 33.2354C126.158 33.0662 125.276 33.153 124.474 33.485C123.673 33.8169 122.988 34.379 122.506 35.1002C122.024 35.8214 121.767 36.6693 121.767 37.5367C121.767 38.6998 122.229 39.8153 123.052 40.6377C123.874 41.4602 124.99 41.9222 126.153 41.9222Z" fill="#03DBB2"/>
<path d="M139.193 28.8817C140.061 28.8817 140.909 28.6245 141.63 28.1426C142.351 27.6607 142.913 26.9758 143.245 26.1744C143.577 25.3731 143.664 24.4913 143.495 23.6406C143.325 22.7899 142.908 22.0084 142.294 21.3951C141.681 20.7818 140.9 20.3641 140.049 20.1949C139.198 20.0256 138.316 20.1125 137.515 20.4444C136.714 20.7764 136.029 21.3385 135.547 22.0597C135.065 22.7809 134.808 23.6288 134.808 24.4962C134.808 25.6593 135.27 26.7748 136.092 27.5972C136.915 28.4197 138.03 28.8817 139.193 28.8817Z" fill="#03DBB2"/>
<path d="M144.323 40.6167C145.19 40.6167 146.038 40.3595 146.759 39.8776C147.48 39.3957 148.043 38.7108 148.375 37.9094C148.706 37.1081 148.793 36.2263 148.624 35.3756C148.455 34.5248 148.037 33.7434 147.424 33.1301C146.811 32.5168 146.029 32.0991 145.178 31.9298C144.328 31.7606 143.446 31.8475 142.645 32.1794C141.843 32.5113 141.158 33.0735 140.676 33.7947C140.194 34.5159 139.937 35.3638 139.937 36.2311C139.937 37.3943 140.399 38.5097 141.222 39.3322C142.044 40.1546 143.16 40.6167 144.323 40.6167Z" fill="#03DBB2"/>
<path d="M126.669 10.5102C127.709 10.5102 128.725 10.202 129.589 9.62452C130.453 9.04709 131.127 8.22636 131.524 7.26612C131.922 6.30587 132.026 5.24925 131.823 4.22987C131.621 3.21048 131.12 2.27412 130.385 1.53918C129.65 0.804244 128.714 0.303746 127.695 0.100977C126.675 -0.101791 125.619 0.00227684 124.658 0.400021C123.698 0.797766 122.877 1.47132 122.3 2.33552C121.722 3.19971 121.414 4.21573 121.414 5.25508C121.414 5.94519 121.55 6.62854 121.814 7.26612C122.078 7.90369 122.465 8.48301 122.953 8.97099C123.441 9.45897 124.021 9.84605 124.658 10.1101C125.296 10.3742 125.979 10.5102 126.669 10.5102Z" fill="#03DBB2"/>
<path d="M136.066 46.3456C133.583 48.8301 130.217 50.2291 126.705 50.2357C123.193 50.2424 119.821 48.8562 117.329 46.3811L111.134 52.5768C114.262 55.693 118.255 57.7973 122.594 58.6168C126.933 59.4363 131.419 58.9331 135.468 57.1726C139.518 55.4121 142.945 52.4754 145.306 48.7434C147.666 45.0114 148.851 40.6563 148.706 36.2429H139.94C140.042 38.1047 139.75 39.9672 139.082 41.7082C138.415 43.4492 137.387 45.0295 136.066 46.3456Z" fill="#03DBB2"/>
<path d="M202.576 27.6758H193.962V51.3687H202.576V27.6758Z" fill="#03DBB2"/>
<path d="M184.849 26.8749H176.235V36.7785H184.849V26.8749Z" fill="#03DBB2"/>
<path d="M198.269 55.6451C199.121 55.6451 199.955 55.3923 200.663 54.9188C201.372 54.4452 201.924 53.7721 202.251 52.9846C202.577 52.1971 202.662 51.3306 202.496 50.4946C202.33 49.6586 201.919 48.8907 201.316 48.2879C200.714 47.6852 199.946 47.2747 199.11 47.1084C198.274 46.9422 197.407 47.0275 196.62 47.3537C195.832 47.6799 195.159 48.2323 194.685 48.941C194.212 49.6497 193.959 50.483 193.959 51.3354C193.959 51.9013 194.071 52.4617 194.287 52.9846C194.504 53.5075 194.821 53.9826 195.221 54.3828C195.622 54.783 196.097 55.1005 196.62 55.317C197.143 55.5336 197.703 55.6451 198.269 55.6451Z" fill="#03DBB2"/>
<path d="M180.544 41.0528C181.397 41.0528 182.23 40.8001 182.939 40.3265C183.648 39.8529 184.2 39.1799 184.526 38.3923C184.852 37.6048 184.938 36.7383 184.771 35.9023C184.605 35.0663 184.195 34.2984 183.592 33.6956C182.989 33.0929 182.221 32.6825 181.385 32.5162C180.549 32.3499 179.683 32.4352 178.895 32.7614C178.108 33.0876 177.435 33.64 176.961 34.3487C176.487 35.0575 176.235 35.8907 176.235 36.7431C176.235 37.309 176.346 37.8695 176.563 38.3923C176.779 38.9152 177.097 39.3903 177.497 39.7905C177.897 40.1907 178.372 40.5082 178.895 40.7248C179.418 40.9413 179.979 41.0528 180.544 41.0528Z" fill="#03DBB2"/>
<path d="M189.406 14.6897C187.676 14.6897 185.963 15.0304 184.365 15.6925C182.767 16.3545 181.315 17.3249 180.092 18.5482C178.868 19.7715 177.898 21.2237 177.237 22.8219C176.575 24.4202 176.234 26.1331 176.235 27.8629H184.838C184.838 26.6539 185.318 25.4945 186.173 24.6396C187.028 23.7847 188.187 23.3044 189.396 23.3044C190.605 23.3044 191.765 23.7847 192.619 24.6396C193.474 25.4945 193.955 26.6539 193.955 27.8629H202.567C202.567 26.1331 202.227 24.4202 201.565 22.8219C200.903 21.2237 199.933 19.7715 198.71 18.5482C197.487 17.3249 196.035 16.3545 194.437 15.6925C192.839 15.0304 191.126 14.6897 189.396 14.6897H189.406Z" fill="#03DBB2"/>
<path d="M158.505 51.506H167.12V27.7325H158.5L158.505 51.506Z" fill="#03DBB2"/>
<path d="M162.815 55.7589C163.667 55.7589 164.501 55.5061 165.209 55.0326C165.918 54.559 166.47 53.8859 166.797 53.0984C167.123 52.3109 167.208 51.4444 167.042 50.6084C166.876 49.7723 166.465 49.0044 165.862 48.4017C165.26 47.799 164.492 47.3885 163.656 47.2222C162.82 47.0559 161.953 47.1413 161.166 47.4675C160.378 47.7937 159.705 48.3461 159.232 49.0548C158.758 49.7635 158.505 50.5968 158.505 51.4491C158.505 52.5922 158.959 53.6884 159.768 54.4966C160.576 55.3048 161.672 55.7589 162.815 55.7589Z" fill="#03DBB2"/>
<path d="M171.678 14.8033C175.169 14.8071 178.516 16.1963 180.983 18.6659C183.451 21.1354 184.837 24.4833 184.838 27.9742H176.235C176.255 27.0597 175.999 26.1604 175.502 25.3929C175.004 24.6254 174.287 24.0253 173.444 23.6704C172.601 23.3156 171.671 23.2224 170.774 23.403C169.878 23.5836 169.056 24.0297 168.416 24.6833C167.993 25.1187 167.66 25.6332 167.435 26.1972C167.213 26.7627 167.106 27.3668 167.12 27.9742H158.505C158.505 26.2444 158.846 24.5315 159.508 22.9334C160.17 21.3353 161.14 19.8832 162.364 18.6602C163.587 17.4371 165.039 16.467 166.637 15.8052C168.236 15.1435 169.949 14.803 171.678 14.8033Z" fill="#03DBB2"/>
</g>
<defs>
<clipPath id="clip0_123_1099">
<rect width="202.579" height="59" fill="white"/>
</clipPath>
</defs>
</svg>
